<svg xmlns="http://www.w3.org/2000/svg" version="1.1" xmlns:xlink="http://www.w3.org/1999/xlink" xmlns:svgjs="http://svgjs.dev/svgjs" width="56.460571" height="56"><svg width="56.460571" height="56" viewBox="0 0 56.460571 56" fill="none" version="1.1" id="SvgjsSvg1172" sodipodi:docname="bss-logo-bluebg-f6BSV4XV.svg" inkscape:version="1.3.2 (091e20e, 2023-11-25)" xmlns:inkscape="http://www.inkscape.org/namespaces/inkscape" xmlns:sodipodi="http://sodipodi.sourceforge.net/DTD/sodipodi-0.dtd" xmlns="http://www.w3.org/2000/svg" xmlns:svg="http://www.w3.org/2000/svg">
  <sodipodi:namedview id="SvgjsSodipodi:namedview1171" pagecolor="#505050" bordercolor="#eeeeee" borderopacity="1" inkscape:showpageshadow="0" inkscape:pageopacity="0" inkscape:pagecheckerboard="0" inkscape:deskcolor="#505050" inkscape:zoom="1.6182796" inkscape:cx="93" inkscape:cy="28.116279" inkscape:window-width="1392" inkscape:window-height="1212" inkscape:window-x="2240" inkscape:window-y="25" inkscape:window-maximized="0" inkscape:current-layer="g21"></sodipodi:namedview>
  <g clip-path="url(#clip0_11_27)" id="SvgjsG1170" transform="translate(-3.0517546e-5)">
    <path d="M 54.7099,31.4413 C 59.5541,19.8396 54.0005,6.53883 42.3056,1.73324 30.6107,-3.07234 17.2031,2.437 12.3589,14.0387 7.5147,25.6404 13.0683,38.9411 24.7632,43.7467 36.4581,48.5523 49.8657,43.043 54.7099,31.4413 Z" fill="#023e8a" id="SvgjsPath1169"></path>
    <path d="M 11.5764,31.8022 C 11.2355,30.9946 10.68,30.2938 9.96926,29.7746 9.25848,29.2554 8.41899,28.9373 7.54032,28.8542 6.66164,28.771 5.7767,28.926 4.9798,29.3025 4.1829,29.679 3.5039,30.2629 3.0152,30.9921 2.52651,31.7213 2.24643,32.5683 2.2048,33.443 c -0.04163,0.8746 0.15675,1.7441 0.57402,2.5157 0.41726,0.7716 1.03774,1.4165 1.79534,1.8658 0.75759,0.4493 1.6239,0.6863 2.50657,0.6856 0.64284,-0.001 1.27895,-0.1299 1.8707,-0.3791 0.59127,-0.2445 1.12817,-0.6022 1.58017,-1.0526 0.4519,-0.4504 0.8099,-0.9847 1.0537,-1.5724 0.2437,-0.5877 0.3684,-1.2173 0.3669,-1.8528 -0.0015,-0.6355 -0.1292,-1.2644 -0.3758,-1.851 z" fill="#023e8a" id="SvgjsPath1168"></path>
    <path d="M 4.88778,27.6391 C 5.85345,27.6378 6.79704,27.3523 7.59914,26.8189 8.40124,26.2854 9.0258,25.528 9.39383,24.6423 9.76185,23.7566 9.85681,22.7825 9.66664,21.8433 9.47647,20.9041 9.00973,20.0419 8.3255,19.3659 7.64127,18.6899 6.77031,18.2305 5.82278,18.0456 4.87525,17.8608 3.89371,17.959 3.00243,18.3277 2.11115,18.6964 1.35017,19.3191 0.815725,20.117 0.281277,20.9149 -0.00257996,21.8521 4.86093e-5,22.8101 4.83147e-4,23.4459 0.127298,24.0754 0.373288,24.6626 c 0.245991,0.5872 0.606298,1.1204 1.060302,1.5693 0.454,0.4488 0.9928,0.8044 1.58551,1.0465 0.59272,0.242 1.22772,0.3657 1.86868,0.364 z" fill="#023e8a" id="SvgjsPath1167"></path>
    <path d="m 16.7499,39.4429 c -0.6826,-0.6758 -1.5517,-1.1358 -2.4976,-1.3217 -0.946,-0.186 -1.9263,-0.0897 -2.8171,0.2768 -0.8907,0.3666 -1.65198,0.9868 -2.18756,1.7823 -0.53557,0.7956 -0.82143,1.7308 -0.82143,2.6874 0,0.9567 0.28586,1.8919 0.82143,2.6874 0.53558,0.7956 1.29686,1.4158 2.18756,1.7823 0.8908,0.3665 1.8711,0.4629 2.8171,0.2769 0.9459,-0.186 1.815,-0.6459 2.4976,-1.3218 0.4539,-0.4494 0.814,-0.9833 1.0597,-1.5709 0.2457,-0.5877 0.3721,-1.2177 0.3721,-1.8539 0,-0.6362 -0.1264,-1.2661 -0.3721,-1.8538 -0.2457,-0.5877 -0.6058,-1.1215 -1.0597,-1.571 z" fill="#023e8a" id="SvgjsPath1166"></path>
    <path d="m 24.462,44.5653 c -0.5932,-0.2502 -1.2306,-0.3813 -1.8752,-0.3857 -0.6446,-0.0044 -1.2837,0.118 -1.8803,0.3602 -0.5966,0.2421 -1.139,0.5991 -1.5957,1.0504 -0.4566,0.4513 -0.8186,0.988 -1.065,1.5789 -0.2463,0.5909 -0.3722,1.2245 -0.3702,1.8639 0.0019,0.6395 0.1316,1.2723 0.3816,1.8617 0.25,0.5895 0.6152,1.1239 1.0746,1.5725 0.4594,0.4485 1.0039,0.8023 1.602,1.0409 0.59,0.2464 1.224,0.372 1.8641,0.3691 1.1293,8e-4 2.224,-0.3872 3.0971,-1.0978 0.8732,-0.7105 1.4707,-1.6997 1.6906,-2.7985 0.22,-1.0989 0.0488,-2.2395 -0.4844,-3.2271 -0.5332,-0.9876 -1.3953,-1.7611 -2.4392,-2.1885 z" fill="#023e8a" id="SvgjsPath1165"></path>
    <path d="m 33.5563,46.3189 c -0.9652,0.0013 -1.9084,0.2865 -2.7103,0.8195 -0.8019,0.533 -1.4265,1.2899 -1.7948,2.175 -0.3683,0.8851 -0.4639,1.8587 -0.2745,2.7976 0.1894,0.939 0.6551,1.8012 1.3383,2.4776 0.6833,0.6764 1.5533,1.1366 2.5002,1.3226 0.9469,0.1859 1.928,0.0891 2.8195,-0.278 0.8914,-0.3672 1.6532,-0.9884 2.1888,-1.785 0.5357,-0.7966 0.8212,-1.7328 0.8205,-2.6904 5e-4,-0.6364 -0.1257,-1.2666 -0.3713,-1.8545 -0.2456,-0.588 -0.6058,-1.122 -1.0599,-1.5716 -0.4541,-0.4495 -0.9931,-0.8057 -1.5863,-1.0482 -0.5931,-0.2424 -1.2287,-0.3663 -1.8702,-0.3646 z" fill="#023e8a" id="SvgjsPath1164"></path>
    <path d="M 25.4854,33.4767 V 12.3642 h 12.1977 c 1.0272,-0.0291 2.0341,0.2868 2.8576,0.8966 0.3625,0.2263 0.6625,0.5386 0.8731,0.9086 0.2105,0.37 0.325,0.7861 0.333,1.2109 v 4.5258 c -0.0057,0.4284 -0.1189,0.8487 -0.3295,1.2228 -0.2106,0.3741 -0.5119,0.6902 -0.8766,0.9197 -0.0601,0.0443 -0.1234,0.0839 -0.1894,0.1187 l 0.1894,0.1417 c 0.3627,0.2261 0.6629,0.5383 0.8735,0.9083 0.2106,0.3701 0.3249,0.7864 0.3326,1.2112 v 6.0322 c -0.0057,0.4284 -0.1189,0.8487 -0.3295,1.2228 -0.2106,0.3741 -0.5119,0.6902 -0.8766,0.9197 -0.8289,0.5968 -1.8339,0.904 -2.8576,0.8735 z M 37.6831,19.7676 v -2.7425 c 0,-0.4371 -0.175,-0.8563 -0.4866,-1.1654 -0.3115,-0.309 -0.7341,-0.4827 -1.1747,-0.4827 h -6.4694 v 6.0322 h 6.4727 c 0.4389,-9e-4 0.8596,-0.174 1.1703,-0.4816 0.3106,-0.3076 0.486,-0.7246 0.4877,-1.16 z m 0,9.0482 v -2.7424 c 0,-0.4372 -0.175,-0.8564 -0.4866,-1.1654 -0.3115,-0.3091 -0.7341,-0.4828 -1.1747,-0.4828 h -6.4694 v 6.0322 h 6.4727 c 0.4389,-9e-4 0.8596,-0.174 1.1703,-0.4816 0.3106,-0.3076 0.486,-0.7246 0.4877,-1.16 z" fill="#ffffff" id="SvgjsPath1163"></path>
  </g>
  <defs id="SvgjsDefs1162">
    <clipPath id="SvgjsClipPath1161">
      <rect width="186" height="56" fill="#ffffff" id="SvgjsRect1160" x="0" y="0"></rect>
    </clipPath>
  </defs>
</svg><style>@media (prefers-color-scheme: light) { :root { filter: none; } }
@media (prefers-color-scheme: dark) { :root { filter: none; } }
</style></svg>